/* XPM */
static char *ec_icon1648737940[] = {
/* columns rows colors chars-per-pixel */
"32 32 35 1 ",
"  c #3C7D69",
". c #417F69",
"X c #438068",
"o c #458068",
"O c #4C8168",
"+ c #4D8268",
"@ c #638C64",
"# c #759462",
"$ c #F8E717",
"% c #F9E815",
"& c #F9E816",
"* c #F7E61A",
"= c #DCD33A",
"- c #E2D735",
"; c #E4D833",
": c #E3D934",
"> c #EFE127",
", c #F2E322",
"< c #F1E324",
"1 c #F0E126",
"2 c #8A9E5E",
"3 c #8DA15C",
"4 c #9BA959",
"5 c #B8BB4E",
"6 c #BCBC4D",
"7 c #AAB154",
"8 c #809A60",
"9 c #CAC745",
"0 c #C8C646",
"q c #CFCA43",
"w c #CCC845",
"e c #C2C04A",
"r c #C5C349",
"t c #D0CB42",
"y c #D3CE40",
/* pixels */
"                                ",
"                                ",
"                                ",
"                                ",
"                                ",
"                                ",
"                                ",
"                                ",
"                                ",
"                                ",
"    3%%%%%%%%%7     #e:<*>:r2   ",
"    3%%%%%%%%%7   X6$%%%%%%%=   ",
"    3%%%4        .r%%%=#+@25w   ",
"    3%%%4        8%%%q          ",
"    3%%%4        t%%*@          ",
"    3%%%4        >%%-           ",
"    3%%%%%%%%%. o%%%y           ",
"    3%%%%%%%%$+ X%%%y           ",
"    3%%%4        >%%:           ",
"    3%%%4        t%%$@          ",
"    3%%%4        3%%%t   .      ",
"    3%%%4         r%%%t8+@85w   ",
"    3%%%%%%%%%0   .6$%%%$$%%=   ",
"    3%%%%%%%$$0     #e:,*<;08   ",
"                                ",
"                                ",
"                                ",
"                                ",
"                                ",
"                                ",
"                                ",
"                                "
};
